<?xml version="1.0"?><svg width="793.7007874015749" height="1122.5196850393702" xmlns="http://www.w3.org/2000/svg">
 <title>orange bicycle</title>
 <metadata id="metadata18081">image/svg+xmlPublic Domainclker.comMohamed Ibrahimmap symbolsmap symbols</metadata>
 <g>
  <title>Layer 1</title>
  <path d="m160.921997,185.869003c-32.720993,0 -59.334,26.612991 -59.334,59.334991l0,454.957016c0,32.661011 26.613007,59.273987 59.334,59.273987l454.957031,0c32.721985,0 59.334961,-26.612976 59.334961,-59.273987l0,-454.957016c0,-32.722 -26.612976,-59.334991 -59.334961,-59.334991l-454.957031,0z" id="path7056" fill-rule="nonzero" fill="#ffffff"/>
  <path d="m125.478859,578.104858c0,-58.789978 47.721504,-106.330048 106.33004,-106.330048c58.850464,0 106.511505,47.54007 106.511505,106.330048c0,58.850464 -47.661041,106.450989 -106.511505,106.450989c-58.608536,0 -106.33004,-47.600525 -106.33004,-106.450989m106.33004,86.793884c47.902954,0 86.793854,-38.830444 86.793854,-86.793884c0,-47.902954 -38.8909,-86.733368 -86.793854,-86.733368c-47.781982,0 -86.612411,38.830414 -86.612411,86.733368c0,47.96344 38.830429,86.793884 86.612411,86.793884" id="path7060" fill-rule="nonzero" fill="#00ff00"/>
  <path d="m438.602081,579.193604c0,-58.850464 47.721497,-106.390503 106.511505,-106.390503c58.669006,0 106.390503,47.540039 106.390503,106.390503c0,58.789978 -47.721497,106.390503 -106.390503,106.390503c-58.790009,0 -106.511505,-47.600525 -106.511505,-106.390503m106.511505,86.733398c47.781982,0 86.672852,-38.830444 86.672852,-86.733398c0,-47.902954 -38.890869,-86.793854 -86.672852,-86.793854c-47.902954,0 -86.793884,38.8909 -86.793884,86.793854c0,47.902954 38.89093,86.733398 86.793884,86.733398" id="path7062" fill-rule="nonzero" fill="#00ff00"/>
  <path d="m438.90448,319.537811c22.076477,0 40.0401,-17.842651 40.0401,-39.979614c0,-22.076477 -17.963623,-40.040085 -40.0401,-40.040085c-22.076477,0 -40.0401,17.963608 -40.0401,40.040085c0,22.136963 17.963623,39.979614 40.0401,39.979614" id="path7064" fill-rule="nonzero" fill="#00ff00"/>
  <path d="m440.537994,416.614014c-5.746002,0.120972 -12.036987,-2.782013 -16.632996,-10.040009l-26.007996,-40.64502l-53.588989,53.104004l49.717987,26.190002c20.442993,9.798004 17.358002,27.761017 17.358002,27.761017l0,112.559998c0,12.762024 -10.282013,23.166016 -23.044006,23.166016c-12.761993,0 -23.044006,-10.403992 -23.044006,-23.166016l0,-90.119995l-86.188995,-47.903015c-10.281982,-5.746002 -17.298004,-16.753998 -17.298004,-29.273987c0,-8.58902 3.205017,-16.512024 8.649017,-22.440002l84.556,-84.737c10.523987,-11.855011 25.16098,-9.980011 25.16098,-9.980011c17.722015,0 27.097015,15.484009 27.097015,15.484009l43.911011,68.829987l66.77298,-0.121002c23.952026,0 23.952026,31.331024 0,31.331024l-77.417999,0l0,0z" id="path7066" fill-rule="nonzero" fill="#00ff00"/>
 </g>
</svg>